<?xml version="1.0" standalone="no"?>
<!DOCTYPE svg PUBLIC "-//W3C//DTD SVG 20010904//EN"
 "http://www.w3.org/TR/2001/REC-SVG-20010904/DTD/svg10.dtd">
<svg version="1.0" xmlns="http://www.w3.org/2000/svg"
 width="500.000000pt" height="500.000000pt" viewBox="0 0 500.000000 500.000000"
 preserveAspectRatio="xMidYMid meet">

<g transform="translate(0.000000,500.000000) scale(0.100000,-0.100000)"
fill="#000000" stroke="none">
<path d="M3411 2634 c0 -11 3 -14 6 -6 3 7 2 16 -1 19 -3 4 -6 -2 -5 -13z"/>
<path d="M3242 2624 c-30 -21 -76 -111 -59 -117 12 -4 29 18 76 96 24 40 19
46 -17 21z"/>
<path d="M2506 2609 c-15 -12 -38 -46 -52 -77 -41 -93 -26 -78 70 71 22 33 18
34 -18 6z"/>
<path d="M1831 2594 c-16 -21 -40 -80 -69 -174 -6 -22 29 34 78 123 31 57 38
77 27 77 -9 0 -25 -11 -36 -26z"/>
<path d="M1500 2590 c-7 -14 -8 -32 -1 -55 5 -20 5 -35 0 -37 -13 -4 32 -136
49 -143 16 -6 15 20 -9 181 -12 76 -21 89 -39 54z"/>
<path d="M2196 2591 c-16 -17 -89 -201 -80 -201 4 0 114 205 114 214 0 12 -17
6 -34 -13z"/>
<path d="M3387 2581 c-12 -21 -15 -39 -9 -72 l8 -44 12 69 c7 37 11 70 9 72
-1 2 -11 -9 -20 -25z"/>
<path d="M2810 2576 c-11 -22 -8 -35 26 -115 21 -50 40 -89 42 -87 3 4 -48
226 -52 226 -2 0 -8 -11 -16 -24z"/>
<path d="M2563 2449 c-20 -31 -20 -32 -2 -50 15 -15 17 -24 9 -39 -13 -24 -36
-26 -48 -4 -7 13 -11 12 -26 -10 l-16 -26 75 0 c41 0 75 2 75 5 0 16 -34 141
-40 148 -4 5 -16 -6 -27 -24z"/>
<path d="M1902 2415 c-12 -25 -11 -31 7 -49 21 -20 21 -20 20 -1 -1 11 -4 33
-8 49 l-6 30 -13 -29z"/>
<path d="M1690 2333 c0 -50 4 -49 39 10 l23 37 -31 0 c-30 0 -31 -1 -31 -47z"/>
<path d="M2356 2363 c-6 -14 -5 -15 5 -6 7 7 10 15 7 18 -3 3 -9 -2 -12 -12z"/>
<path d="M2077 2345 c-11 -8 -17 -23 -15 -36 3 -19 5 -18 20 14 10 21 17 37
15 37 -1 0 -10 -7 -20 -15z"/>
<path d="M3028 2298 c5 -32 13 -35 28 -10 9 14 8 20 -10 28 -20 9 -22 8 -18
-18z"/>
<path d="M3479 2308 c-6 -20 -26 -124 -24 -126 2 -2 17 -1 34 3 29 6 30 8 16
28 -23 33 -18 55 18 77 l32 20 -37 0 c-21 0 -38 -1 -39 -2z"/>
<path d="M3145 2204 c-73 -112 -75 -118 -41 -102 20 8 39 36 67 96 22 46 38
86 36 89 -3 2 -31 -35 -62 -83z"/>
<path d="M1761 2158 c-18 -33 -27 -58 -20 -56 15 5 62 94 57 108 -2 5 -18 -18
-37 -52z"/>
<path d="M2130 2157 c-23 -42 -28 -57 -15 -47 18 15 60 98 53 105 -2 2 -19
-24 -38 -58z"/>
<path d="M2388 2180 c-19 -34 -13 -38 21 -13 14 9 41 22 60 29 l36 13 -50 0
c-45 1 -52 -2 -67 -29z"/>
</g>
</svg>
